<svg width="50" height="50" viewBox="0 0 50 50" fill="none" xmlns="http://www.w3.org/2000/svg">
<path d="M42.2971 6.21746C41.6951 6.24364 41.1426 6.41679 40.6573 6.60808C40.2089 6.78466 38.5988 7.46141 36.0349 8.53679C33.471 9.61218 30.0737 11.038 26.4524 12.561C19.2098 15.6071 11.0711 19.0336 6.9008 20.7886C6.75759 20.8483 6.17598 21.0263 5.53361 21.5169C4.88976 22.0087 4.17456 23.076 4.17456 24.2432C4.17456 25.1847 4.64459 26.1437 5.21216 26.6927C5.77973 27.2417 6.35494 27.4984 6.83569 27.6896V27.6856C8.46075 28.333 13.3137 30.2749 14.4692 30.7373C14.879 31.9655 16.6385 37.2235 17.057 38.5457H17.053C17.3488 39.4816 17.6372 40.0915 18.0377 40.6006C18.2379 40.8551 18.4769 41.0858 18.7701 41.2679C18.8826 41.3378 19.0071 41.392 19.1322 41.4429C19.1497 41.4503 19.1676 41.4521 19.1851 41.4592L19.1363 41.4469C19.1726 41.4615 19.2051 41.483 19.2421 41.4958C19.3023 41.5165 19.3441 41.5158 19.4252 41.5324C19.7106 41.6202 19.9955 41.6789 20.2594 41.6789C21.3919 41.6789 22.0863 41.0645 22.0863 41.0645L22.1311 41.0319L27.0221 36.8937L33.0116 42.4357C33.121 42.5902 33.9781 43.75 35.9617 43.75C37.1453 43.75 38.0811 43.1642 38.6798 42.5496C39.2785 41.9351 39.6514 41.3064 39.8191 40.4541L39.8232 40.45C39.9569 39.7622 45.6907 10.9701 45.6907 10.9701L45.6785 11.0189C45.8569 10.2223 45.9096 9.45202 45.6988 8.667C45.488 7.88199 44.9191 7.11589 44.234 6.71388C43.5489 6.31186 42.8991 6.19127 42.2971 6.21746ZM41.4752 10.7788C41.2486 11.9164 36.1123 37.7206 35.7948 39.3392L27.1441 31.3355L21.297 36.2793L22.9164 29.9479C22.9164 29.9479 34.0884 18.6393 34.7613 17.981C35.303 17.4539 35.4164 17.2691 35.4164 17.0858C35.4164 16.842 35.291 16.6667 35.0014 16.6667C34.741 16.6667 34.3873 16.9162 34.1998 17.0329C31.8172 18.5183 21.6691 24.3014 16.6786 27.1403C16.3783 27.0199 11.8693 25.2093 9.43986 24.2391C13.7612 22.4204 21.1688 19.3038 28.0678 16.4022C31.6884 14.8794 35.0848 13.4523 37.6462 12.3779C39.8084 11.471 40.9363 11.0015 41.4752 10.7788ZM35.7338 39.6362H35.7379L35.7338 39.6484C35.7365 39.635 35.7318 39.6468 35.7338 39.6362Z" fill="white"/>
</svg>
