<svg width="50" height="50" viewBox="0 0 50 50" fill="none" xmlns="http://www.w3.org/2000/svg">
<path d="M24.9998 4.16668C13.4927 4.16668 4.1665 13.4928 4.1665 25C4.1665 36.5072 13.4927 45.8333 24.9998 45.8333C36.507 45.8333 45.8332 36.5072 45.8332 25C45.8332 13.4928 36.507 4.16668 24.9998 4.16668ZM24.9998 8.33334C34.1877 8.33334 41.6665 15.8122 41.6665 25C41.6665 25.9766 41.5689 26.9369 41.4061 27.8646C40.8934 27.7507 40.1366 27.6123 39.2577 27.6042C38.6066 27.596 37.7928 27.7018 37.1092 27.7995C37.3452 27.0752 37.4998 26.2777 37.4998 25.4557C37.4998 23.4538 36.5233 21.5902 34.9608 20.0521C35.3921 18.4489 35.8153 15.6983 34.7004 14.5833C31.4045 14.5833 29.5815 16.9352 29.492 17.0573C28.4748 16.8132 27.425 16.6667 26.3019 16.6667C24.8615 16.6667 23.4862 16.9271 22.2004 17.3177L22.591 16.9922C22.591 16.9922 20.7599 14.4531 17.3827 14.4531C16.2026 15.6413 16.7397 18.6524 17.1873 20.1823C15.5923 21.7041 14.5832 23.5026 14.5832 25.4557C14.5832 26.1393 14.7459 26.7904 14.9087 27.4089C14.3309 27.3438 12.2476 27.1484 11.3931 27.1484C10.6362 27.1484 9.46436 27.3275 8.52848 27.5391C8.39827 26.709 8.33317 25.8626 8.33317 25C8.33317 15.8122 15.812 8.33334 24.9998 8.33334ZM11.3931 27.6693C12.215 27.6693 14.7134 27.9622 15.0389 27.9948C15.0796 28.1087 15.1203 28.2145 15.1691 28.3203C14.2739 28.2389 12.5405 28.1169 11.3931 28.2552C10.6281 28.3447 9.65153 28.6214 8.7889 28.8412C8.7238 28.5807 8.64242 28.3285 8.59359 28.0599C9.50505 27.8646 10.7013 27.6693 11.3931 27.6693ZM39.2577 28.125C40.0877 28.1331 40.8446 28.2715 41.341 28.3854C41.3166 28.5238 41.2433 28.6377 41.2108 28.7761C40.6818 28.654 39.811 28.4749 38.8019 28.4505C38.3136 28.4424 37.5324 28.4668 36.8488 28.5156C36.8814 28.4505 36.8895 28.3854 36.9139 28.3203C37.6219 28.2227 38.5252 28.1169 39.2577 28.125ZM12.6952 28.7109C13.867 28.7191 14.9657 28.8005 15.4295 28.8412C16.52 30.8757 18.7254 32.3812 22.1353 33.0078C21.297 33.4717 20.5483 34.1227 19.9868 34.8958C19.4985 34.9365 18.9858 34.9609 18.4894 34.9609C17.0409 34.9609 16.1375 33.667 15.3644 32.5521C14.5832 31.4372 13.6229 31.3151 13.0858 31.25C12.5405 31.1849 12.3534 31.4942 12.63 31.7057C14.217 32.9264 14.7866 34.375 15.4295 35.6771C16.0073 36.849 17.2199 37.5 18.5545 37.5H18.8149C18.7743 37.7279 18.7498 37.9395 18.7498 38.1511V40.4297C13.9403 38.4847 10.2782 34.375 8.91911 29.2969C9.7736 29.0853 10.7339 28.8656 11.4582 28.7761C11.7918 28.7354 12.215 28.7028 12.6952 28.7109ZM38.8019 28.9714C39.7378 28.9958 40.5679 29.1748 41.0806 29.2969C39.9331 33.61 37.1011 37.1989 33.3332 39.388V38.1511C33.3332 36.377 31.9334 34.0983 29.9478 33.0078C33.2437 32.4056 35.3921 30.9652 36.5233 29.0365C37.3127 28.9795 38.2404 28.9551 38.8019 28.9714ZM26.0415 37.5C26.6112 37.5 27.0832 37.972 27.0832 38.5417V41.5365C26.3996 41.626 25.7078 41.6667 24.9998 41.6667V38.5417C24.9998 37.972 25.4718 37.5 26.0415 37.5ZM21.8748 39.5833C22.4445 39.5833 22.9165 40.0554 22.9165 40.625V41.5365C22.2166 41.447 21.5086 41.3167 20.8332 41.1458V40.625C20.8332 40.0554 21.3052 39.5833 21.8748 39.5833ZM30.2082 39.5833C30.7127 39.5833 31.1522 39.9496 31.2498 40.4297C30.5744 40.7064 29.8827 40.9587 29.1665 41.1458V40.625C29.1665 40.0554 29.6385 39.5833 30.2082 39.5833Z" fill="white"/>
</svg>
