<svg width="50" height="50" viewBox="0 0 50 50" fill="none" xmlns="http://www.w3.org/2000/svg">
<path d="M10.4164 6.25001C8.1215 6.25001 6.24976 8.12175 6.24976 10.4167L6.24976 39.5833C6.24976 41.8783 8.1215 43.75 10.4164 43.75H39.5831C41.878 43.75 43.7498 41.8783 43.7498 39.5833V10.4167C43.7498 8.12175 41.878 6.25001 39.5831 6.25001L10.4164 6.25001ZM13.3461 16.0156H18.7498C23.543 16.0156 24.3487 18.9616 24.3487 20.8333C24.3487 23.5433 22.4851 24.3978 22.0701 24.6094C22.4851 24.821 24.6091 25.3906 24.6091 28.5156C24.8207 32.2673 22.477 33.724 19.1404 33.724H13.3461L13.3461 16.0156ZM27.9294 16.0156L35.6117 16.0156V18.099L27.9294 18.099V16.0156ZM16.8617 18.9453V23.3073H18.7498C20.003 23.3073 20.8331 22.8923 20.8331 21.224C20.8331 19.7673 20.2065 18.9453 18.7498 18.9453H16.8617ZM32.4867 20.4427C35.4001 20.4427 37.4998 22.0947 37.4998 26.888V28.3203H30.4034C30.4034 28.9469 30.4441 31.25 32.9425 31.25C34.6108 31.25 35.392 30.4281 35.807 30.013L37.3044 32.0964C37.0929 32.308 35.6524 33.9844 32.9425 33.9844C29.8175 33.9844 27.2784 32.308 27.2784 27.9297V26.888C27.2784 22.0947 29.7768 20.4427 32.4867 20.4427ZM32.0961 23.112C31.4695 23.112 30.2081 23.348 30.2081 25.8464H33.7237C33.7237 25.8464 34.1794 23.112 32.0961 23.112ZM16.8617 26.0417V30.8594H19.1404C20.3936 30.8594 21.0284 29.9723 21.0284 28.5156C21.24 26.8473 20.6541 26.0417 19.4008 26.0417H16.8617Z" fill="white"/>
</svg>
