<svg width="50" height="50" viewBox="0 0 50 50" fill="none" xmlns="http://www.w3.org/2000/svg">
<g clip-path="url(#clip0_10_281)">
<path d="M14.513 7.62939e-06C6.52019 7.62939e-06 -0.000244141 6.52044 -0.000244141 14.5132L-0.000244141 35.4868C-0.000244141 43.4796 6.52019 50 14.513 50H35.4865C43.4793 50 49.9998 43.4796 49.9998 35.4868V14.5132C49.9998 6.52044 43.4793 7.62939e-06 35.4865 7.62939e-06L14.513 7.62939e-06ZM14.513 3.84616L35.4865 3.84616C41.3985 3.84616 46.1536 8.59376 46.1536 14.5132V35.4868C46.1536 41.3987 41.406 46.1539 35.4865 46.1539H14.513C8.60102 46.1539 3.84591 41.4063 3.84591 35.4868L3.84591 14.5132C3.84591 8.60127 8.59351 3.84616 14.513 3.84616ZM39.4228 7.69232C37.8303 7.69232 36.5382 8.98438 36.5382 10.5769C36.5382 12.1695 37.8303 13.4615 39.4228 13.4615C41.0154 13.4615 42.3074 12.1695 42.3074 10.5769C42.3074 8.98438 41.0154 7.69232 39.4228 7.69232ZM24.9998 11.5385C17.5854 11.5385 11.5382 17.5856 11.5382 25C11.5382 32.4144 17.5854 38.4615 24.9998 38.4615C32.4141 38.4615 38.4613 32.4144 38.4613 25C38.4613 17.5856 32.4141 11.5385 24.9998 11.5385ZM24.9998 15.3846C30.3333 15.3846 34.6151 19.6665 34.6151 25C34.6151 30.3335 30.3333 34.6154 24.9998 34.6154C19.6662 34.6154 15.3844 30.3335 15.3844 25C15.3844 19.6665 19.6662 15.3846 24.9998 15.3846Z" fill="white"/>
</g>
<defs>
<clipPath id="clip0_10_281">
<rect width="50" height="50" fill="white" transform="translate(-0.000244141 7.62939e-06)"/>
</clipPath>
</defs>
</svg>
